<?xml version="1.0" encoding="utf-8"?>
<!-- Generator: Adobe Illustrator 22.0.1, SVG Export Plug-In . SVG Version: 6.00 Build 0)  -->
<svg version="1.1" id="Слой_1" xmlns="http://www.w3.org/2000/svg" xmlns:xlink="http://www.w3.org/1999/xlink" x="0px" y="0px"
	 viewBox="0 0 12 12" style="enable-background:new 0 0 12 12;" xml:space="preserve">
<style type="text/css">
	.st0{fill:none;}
	.st1{fill:#FFFFFF;}
</style>
<path class="st0" d="M-6-6h24v24H-6V-6z"/>
<path class="st1" d="M5,10h2v2H5V10z M6.6,0.1C4.5-0.2,2.7,1,2.2,2.9C2,3.4,2.4,4,3.1,4h0.2C3.7,4,4,3.7,4.1,3.4
	c0.3-0.9,1.3-1.5,2.3-1.3C7.4,2.3,8.1,3.2,8,4.2C7.9,5.5,6.4,5.8,5.6,7.1c0,0,0,0,0,0c0,0,0,0,0,0.1C5.4,7.3,5.3,7.5,5.3,7.6
	c0,0,0,0.1,0,0.1c0,0,0,0,0,0.1C5.1,8.1,5,8.5,5,9h2C7,8.6,7.1,8.3,7.3,8c0,0,0-0.1,0.1-0.1c0.1-0.1,0.2-0.3,0.3-0.4c0,0,0,0,0,0
	C7.7,7.3,7.8,7.2,8,7.1c1-0.9,2.3-1.6,2-3.6C9.7,1.8,8.3,0.3,6.6,0.1z"/>
</svg>
